<svg xmlns="http://www.w3.org/2000/svg" xmlns:xlink="http://www.w3.org/1999/xlink" xmlns:lucid="lucid" width="1794.7" height="1386.82"><g transform="translate(0 0)" lucid:page-tab-id="0_0"><path d="M1699.5 790l-88.77-12.86-82.17-15.45-81.22-18.87-91.28-25.33-380.63-119.03-73.5-17.07-72.58-13.66-76.6-11.1-84.84-8.67-97.87-5.87-91.8-1.75M1699.5 790l2.97.43" stroke="#999" stroke-width="2" fill="none"/><path d="M477.4 544.97l-14.16-4.9 14.35-4.37z" fill="#999"/><path d="M478.38 546.36L460 540l18.6-5.66zm-11.9-6.24l9.96 3.45.12-6.5z" fill="#999"/><path d="M1719.75 719.75c0 10.9-8.84 19.75-19.75 19.75-10.9 0-19.75-8.84-19.75-19.75 0-10.9 8.84-19.75 19.75-19.75 10.9 0 19.75 8.84 19.75 19.75z" stroke="#666" fill="#a3d977"/><path d="M1660 705c0-2.76 2.24-5 5-5h70c2.76 0 5 2.24 5 5v148c0 2.76-2.24 5-5 5h-70c-2.76 0-5-2.24-5-5z" fill="none"/><path d="M1700 739.5v50.3c0 2.76 1.2 6.9 2.67 9.22L1740 858m-40-63.2l-40 63.2m0-98.75h80" stroke="#666" fill="none"/><use xlink:href="#a" transform="matrix(1,0,0,1,1580,858) translate(77.21542592592593 24.444444444444446)"/><path d="M79.75 719.75c0 10.9-8.84 19.75-19.75 19.75-10.9 0-19.75-8.84-19.75-19.75C40.25 708.85 49.1 700 60 700c10.9 0 19.75 8.84 19.75 19.75z" stroke="#666" fill="#99d2f2"/><path d="M20 705c0-2.76 2.24-5 5-5h70c2.76 0 5 2.24 5 5v148c0 2.76-2.24 5-5 5H25c-2.76 0-5-2.24-5-5z" fill="none"/><path d="M60 739.5v50.3c0 2.76 1.2 6.9 2.67 9.22L100 858m-40-63.2L20 858m0-98.75h80" stroke="#666" fill="none"/><use xlink:href="#b" transform="matrix(1,0,0,1,-60,858) translate(81.5148086419753 24.444444444444446)"/><path d="M460 790c0 33.14-35.82 60-80 60s-80-26.86-80-60 35.82-60 80-60 80 26.86 80 60z" stroke="#000" stroke-opacity="0" fill="#dedffc"/><use xlink:href="#c" transform="matrix(1,0,0,1,300,730) translate(58.029999999999994 63.15)"/><path d="M460 960c0 33.14-35.82 60-80 60s-80-26.86-80-60 35.82-60 80-60 80 26.86 80 60z" stroke="#000" stroke-opacity="0" fill="#dedffc"/><use xlink:href="#d" transform="matrix(1,0,0,1,300,900) translate(46.57999999999999 63.15)"/><path d="M1659.98 790l-116.37 2.33-92.1 5.73-77.34 8.1-69.08 10.18-67 12.8-76.63 18.04-279.54 73.7-66.98 12.78-69.08 10.2-77.34 8.08-92.1 5.73-98.17 1.97" stroke="#999" stroke-width="2" fill="none"/><path d="M1660 790.9l-.04-1.9h.04zM477.6 964.28l-14.36-4.34 14.17-4.92z" fill="#999"/><path d="M478.62 965.64L460 960l18.38-6.38zm-12.15-5.77l10.1 3.06-.14-6.52z" fill="#999"/><path d="M60.52 790h221.24M60.52 790h-3" stroke="#999" stroke-width="2" fill="none"/><path d="M296.76 790l-14.26 4.64v-9.28z" fill="#999"/><path d="M300 790l-18.5 6v-12zm-16.5 3.26l10.03-3.26-10.03-3.26z" fill="#999"/><path d="M440 200c0 33.14-35.82 60-80 60s-80-26.86-80-60 35.82-60 80-60 80 26.86 80 60z" stroke="#000" stroke-opacity="0" fill="#dedffc"/><use xlink:href="#e" transform="matrix(1,0,0,1,280,140) translate(42.505 63.15)"/><use xlink:href="#f" transform="matrix(1,0,0,1,280,140) translate(79.505 63.15)"/><path d="M680 200c0 33.14-35.82 60-80 60s-80-26.86-80-60 35.82-60 80-60 80 26.86 80 60z" stroke="#000" stroke-opacity="0" fill="#dedffc"/><use xlink:href="#g" transform="matrix(1,0,0,1,520,140) translate(40.754999999999995 63.15)"/><use xlink:href="#h" transform="matrix(1,0,0,1,520,140) translate(84.305 63.15)"/><path d="M100 790l.86-.02.85-.05.86-.1.84-.12.84-.15.85-.2.85-.24.87-.27.88-.32.9-.37.9-.44.96-.5.98-.56 1-.65 1.06-.74 1.1-.83 1.15-.96 1.22-1.1 1.3-1.27 1.38-1.47 1.48-1.72 1.6-2.02 1.75-2.4 1.92-2.9 2.12-3.5 2.37-4.33 2.68-5.42 3.1-6.95 3.6-9.13 4.3-12.4 5.3-17.68 6.88-27 9.92-47.2 56.56-331.15 6.88-27 5.3-17.66 4.3-12.4 3.6-9.14 3.1-6.95 2.7-5.42 2.36-4.33 2.12-3.5 1.92-2.9 1.74-2.4 1.6-2.03 1.5-1.73 1.37-1.47 1.3-1.27.62-.56" stroke="#999" stroke-width="2" fill="none"/><path d="M100.34 790.94l-.34.12V790zM265.77 211.2l-3.67-8.5 14.93-1.42z" fill="#999"/><path d="M280 200l-14.6 12.86-4.77-11.04L280 200zm-16.44 3.56l2.6 5.98 7.9-6.97z" fill="#999"/><path d="M100 790l3.6.08 3.47.2 3.32.36 3.2.47 3.1.6 3.06.72 2.98.83 2.93.96 2.9 1.1 2.9 1.2 2.87 1.36 2.9 1.5 2.92 1.7 2.96 1.88 3.03 2.1 3.1 2.37 3.24 2.68 3.36 3.04 3.57 3.5 3.83 4.08 4.2 4.86 4.7 5.97 5.6 7.72 7.46 11.24 37 60.25 5.6 7.72 4.73 5.97 4.2 4.86 3.82 4.08 3.57 3.5 3.37 3.04 3.24 2.67 3.1 2.36 3.04 2.1 2.96 1.88 2.92 1.7 2.9 1.5 2.88 1.36 2.9 1.2 2.9 1.1 2.92.95 2.98.83 1.68.4" stroke="#999" stroke-width="2" fill="none"/><path d="M100.1 789l-.1 1.03V789zM296.78 959.64l-14.7 3 1.04-9.2z" fill="#999"/><path d="M300 960l-19.06 3.9 1.34-11.94zm-16.76 1.4l10.33-2.12-9.6-4.36z" fill="#999"/><path d="M1659.98 790H478.24" stroke="#999" stroke-width="2" fill="none"/><path d="M1660 791h-.02v-2h.02zM477.5 794.64L463.24 790l14.26-4.64z" fill="#999"/><path d="M478.5 796l-18.5-6 18.5-6zm-12.03-6l10.03 3.26v-6.52z" fill="#999"/><path d="M440 200h78.04" fill="none"/><path d="M440 200h8.67m8.67 0h17.34m8.67 0h17.34m8.67 0h8.67" stroke="#999" stroke-width="2" fill="none"/><path d="M440 201h-.03l.03-1v-.38l-.03-.62h.03zM520 200l-18.67 11.04-1.02-1.72 15.77-9.32-15.76-9.32 1.03-1.72z" fill="#999"/><path d="M1340 540c0 33.14-35.82 60-80 60s-80-26.86-80-60 35.82-60 80-60 80 26.86 80 60z" stroke="#000" stroke-opacity="0" fill="#dedffc"/><use xlink:href="#i" transform="matrix(1,0,0,1,1180,480) translate(35.08 63.15)"/><use xlink:href="#j" transform="matrix(1,0,0,1,1180,480) translate(66.03 63.15)"/><use xlink:href="#k" transform="matrix(1,0,0,1,1180,480) translate(91.97999999999999 63.15)"/><path d="M1719.75 939.75c0 10.9-8.84 19.75-19.75 19.75-10.9 0-19.75-8.84-19.75-19.75 0-10.9 8.84-19.75 19.75-19.75 10.9 0 19.75 8.84 19.75 19.75z" stroke="#666"/><path d="M1660 925c0-2.76 2.24-5 5-5h70c2.76 0 5 2.24 5 5v148c0 2.76-2.24 5-5 5h-70c-2.76 0-5-2.24-5-5z" fill="none"/><path d="M1700 959.5v50.3c0 2.76 1.2 6.9 2.67 9.22L1740 1078m-40-63.2l-40 63.2m0-98.75h80" stroke="#666" fill="none"/><use xlink:href="#l" transform="matrix(1,0,0,1,1580,1078) translate(18.8820925925926 24.444444444444446)"/><use xlink:href="#m" transform="matrix(1,0,0,1,1580,1078) translate(139.78332716049383 24.444444444444446)"/><path d="M920 200c0 33.14-35.82 60-80 60s-80-26.86-80-60 35.82-60 80-60 80 26.86 80 60z" stroke="#000" stroke-opacity="0" fill="#dedffc"/><use xlink:href="#n" transform="matrix(1,0,0,1,760,140) translate(34.57999999999999 51.9)"/><use xlink:href="#o" transform="matrix(1,0,0,1,760,140) translate(89.53 51.9)"/><use xlink:href="#p" transform="matrix(1,0,0,1,760,140) translate(50.55499999999999 73.5)"/><path d="M920 200h58.04" fill="none"/><path d="M920 200h9.67m9.68 0h19.34m9.66 0h9.68" stroke="#999" stroke-width="2" fill="none"/><path d="M920 201h-.03l.03-1v-.38l-.03-.62h.03zM980 200l-18.67 11.04-1.02-1.72 15.77-9.32-15.76-9.32 1.03-1.72z" fill="#999"/><path d="M1140 200c0 33.14-35.82 60-80 60s-80-26.86-80-60 35.82-60 80-60 80 26.86 80 60z" stroke="#000" stroke-opacity="0" fill="#dedffc"/><use xlink:href="#q" transform="matrix(1,0,0,1,980,140) translate(37.055 63.15)"/><use xlink:href="#r" transform="matrix(1,0,0,1,980,140) translate(73.055 63.15)"/><path d="M1140 340c0 33.14-35.82 60-80 60s-80-26.86-80-60 35.82-60 80-60 80 26.86 80 60z" stroke="#000" stroke-opacity="0" fill="#dedffc"/><use xlink:href="#s" transform="matrix(1,0,0,1,980,280.00000000000006) translate(9.579999999999993 63.15)"/><use xlink:href="#t" transform="matrix(1,0,0,1,980,280.00000000000006) translate(79.48 63.15)"/><path d="M1719.75 219.75c0 10.9-8.84 19.75-19.75 19.75-10.9 0-19.75-8.84-19.75-19.75 0-10.9 8.84-19.75 19.75-19.75 10.9 0 19.75 8.84 19.75 19.75z" stroke="#666"/><path d="M1660 205c0-2.76 2.24-5 5-5h70c2.76 0 5 2.24 5 5v148c0 2.76-2.24 5-5 5h-70c-2.76 0-5-2.24-5-5z" fill="none"/><path d="M1700 239.5v50.3c0 2.76 1.2 6.9 2.67 9.22L1740 358m-40-63.2l-40 63.2m0-98.75h80" stroke="#666" fill="none"/><use xlink:href="#u" transform="matrix(1,0,0,1,1580,358) translate(15.835796296296294 24.444444444444446)"/><use xlink:href="#v" transform="matrix(1,0,0,1,1580,358) translate(103.94073456790123 24.444444444444446)"/><path d="M1140 200l42.23.85 34.6 2.16 29.54 3.1 26.25 3.87 24.43 4.65 24.15 5.67 26.7 7.47 130.9 41.94 24.15 5.68 24.43 4.65 26.25 3.87 29.54 3.1 34.6 2.15 40.27.8" fill="none"/><path d="M1140 200l9.8.2m9.8.2l19.57.4m9.78.47l19.55 1.22m9.77.66l19.48 2.04m9.74 1.06l19.36 2.86m9.66 1.6l19.24 3.66m9.55 2.18l15.9 3.73 3.14.87m9.44 2.64l14.12 3.97 4.68 1.5m9.33 3l18.66 5.96m9.33 3l18.64 5.97m9.33 3l18.65 5.96m9.33 3l18.65 5.97m9.33 2.98l4.97 1.6 13.98 3.3m9.54 2.23l.63.15 18.6 3.54m9.65 1.68l19.38 2.85m9.72 1.15l19.48 2.04m9.77.75l19.54 1.2m9.77.57l19.58.4m9.8.2l9.8.2" stroke="#999" stroke-width="2" fill="none"/><path d="M1140.03 199l-.04 2h-.03l.03-1v-.38l-.03-.62zM1660 290l-18.9 10.66-.97-1.74 15.94-9-15.57-9.64 1.06-1.7z" fill="#999"/><path d="M1140 340l70.3-1.38 51.64-3.2 43.2-4.53 44.44-6.6 145.27-25.2 43.2-4.5 51.65-3.22 68.34-1.34" fill="none"/><path d="M1140 340l10.23-.2m10.22-.2l20.44-.4m10.2-.2l19.2-.38 1.25-.08m10.2-.63l20.4-1.26m10.22-.63l9.57-.6 10.8-1.12m10.16-1.06l20.34-2.13m10.12-1.43l20.23-3m10.1-1.5l5.88-.88 14.3-2.5m10.06-1.73l20.15-3.5m10.06-1.74l20.14-3.5m10.08-1.74l20.14-3.5m10.08-1.74l20.14-3.5m10.08-1.74h.03l20.3-2.13m10.17-1.08l12.74-1.33 7.62-.5m10.2-.62l20.4-1.27m10.2-.62l3.22-.2 17.23-.34m10.22-.2l20.44-.4m10.2-.2l10.24-.2" stroke="#999" stroke-width="2" fill="none"/><path d="M1140.03 341h-.06l.03-1v-.38l-.03-.62h.02zM1660 290l-18.45 11.4-1.05-1.7 15.57-9.62-15.94-9 1-1.75z" fill="#999"/><path d="M460.02 790l92.5 1.87 76.55 4.77 65.7 6.88 58.44 8.6 54.1 10.32 52.66 12.35 55.5 15.5 71.68 23.44 217.4 75.95 55.5 15.5 52.65 12.36 54.1 10.3 58.44 8.62 65.7 6.88 76.53 4.77 90.57 1.83" fill="none"/><path d="M460.02 790l9.96.2m9.97.2l19.93.4m9.97.2l19.93.4m9.96.2l12.8.27 7.12.45m9.95.62l19.9 1.24m9.95.62l19.9 1.24m9.95.63l19.82 2.07m9.92 1.04l19.83 2.07m9.9 1.04l6 .62 13.76 2.03m9.86 1.45l19.72 2.9m9.86 1.46l5.23.77 14.4 2.74m9.8 1.87l19.57 3.73m9.8 1.87l.54.1 18.87 4.43m9.7 2.27l19.42 4.56m9.64 2.5l19.2 5.35m9.6 2.7l19.2 5.36m9.5 3l18.95 6.2m9.46 3.1l18.95 6.18m9.5 3.1l7.84 2.56 11.02 3.85m9.4 3.28l18.83 6.57m9.4 3.3l18.82 6.56m9.4 3.3l18.83 6.57m9.4 3.3l18.83 6.57m9.4 3.28l18.83 6.58m9.42 3.28l18.82 6.58m9.4 3.3l18.83 6.56m9.42 3.25l19.2 5.37m9.6 2.68l19.2 5.37m9.62 2.56l19.4 4.55m9.7 2.3l19.42 4.54m9.78 1.92l19.58 3.74m9.8 1.86l16.3 3.1 3.3.5m9.86 1.45l19.72 2.92m9.86 1.45l15.7 2.3 4.05.44m9.9 1.04l19.83 2.08m9.9 1.04l19.84 2.07m9.94.7l19.9 1.25m9.95.62l19.9 1.24m9.95.62l9.07.57 10.84.22m9.98.2l19.93.4m9.97.2l19.93.4m9.97.2l9.97.2" stroke="#999" stroke-width="2" fill="none"/><path d="M460.04 789l-.04 2h-.03l.03-1v-.38l-.03-.62zM1660 1010l-18.9 10.66-.97-1.74 15.94-9-15.57-9.64 1.06-1.7z" fill="#999"/><path d="M460.02 960l312.67 5.8 885.34 44.1" fill="none"/><path d="M460.02 960l10 .2m9.98.17l19.98.37m10 .2l19.98.36m10 .2l19.97.36m10 .18l19.98.37m10 .2l19.98.37m10 .2l19.97.36m10 .18l19.98.4m10 .17l19.97.37m10 .2l19.98.36m10 .2l19.97.36m9.98.4l19.97 1m9.98.5l19.96 1m9.98.5l19.96.98m9.98.5l19.96 1m9.98.5l19.96.98m10 .5l19.95 1m10 .5l19.95.98m9.98.5l19.96 1m9.97.5l19.96 1m9.98.48l19.98 1m9.98.5l19.96 1m9.98.5l19.96.98m9.98.5l19.96 1m9.98.5l19.96.98m9.98.5l19.97 1m9.97.5l19.96.98m9.98.5l19.97 1m9.98.5l19.96 1m10 .48l19.95 1m10 .5l19.95 1m9.98.5l19.96.98m9.98.5l19.96 1m9.98.5l19.96.98m9.98.5l19.97 1m9.98.5l19.96.98m10 .5l19.95 1m9.98.5l19.96 1m9.97.48l19.96 1m10 .5l19.95 1m9.98.5l9.98.48" stroke="#999" stroke-width="2" fill="none"/><path d="M460.04 959l-.04 2h-.03l.03-1v-.38l-.03-.62zM1660 1010l-19.2 10.1-.93-1.77 16.2-8.53-15.27-10.1 1.1-1.66z" fill="#999"/><path d="M79.75 1179.75c0 10.9-8.84 19.75-19.75 19.75-10.9 0-19.75-8.84-19.75-19.75 0-10.9 8.84-19.75 19.75-19.75 10.9 0 19.75 8.84 19.75 19.75z" stroke="#666" fill="#c92d39"/><path d="M20 1165c0-2.76 2.24-5 5-5h70c2.76 0 5 2.24 5 5v148c0 2.76-2.24 5-5 5H25c-2.76 0-5-2.24-5-5z" fill="none"/><path d="M60 1199.5v50.3c0 2.76 1.2 6.9 2.67 9.22L100 1318m-40-63.2L20 1318m0-98.75h80" stroke="#666" fill="none"/><use xlink:href="#w" transform="matrix(1,0,0,1,-60,1318) translate(92.29567283950618 24.444444444444446)"/><path d="M460 1260c0 33.14-35.82 60-80 60s-80-26.86-80-60 35.82-60 80-60 80 26.86 80 60z" stroke="#000" stroke-opacity="0" fill="#dedffc"/><use xlink:href="#x" transform="matrix(1,0,0,1,300,1200) translate(33.555 63.15)"/><use xlink:href="#y" transform="matrix(1,0,0,1,300,1200) translate(82.505 63.15)"/><path d="M1560 540c0 33.14-35.82 60-80 60s-80-26.86-80-60 35.82-60 80-60 80 26.86 80 60z" stroke="#000" stroke-opacity="0" fill="#dedffc"/><use xlink:href="#z" transform="matrix(1,0,0,1,1400,480) translate(17.054999999999986 63.15)"/><use xlink:href="#j" transform="matrix(1,0,0,1,1400,480) translate(79.005 63.15)"/><use xlink:href="#f" transform="matrix(1,0,0,1,1400,480) translate(104.955 63.15)"/><path d="M1699.5 790l-1.2-.03-1.18-.07-1.17-.12-1.15-.17-1.15-.2-1.14-.28-1.13-.32-1.14-.37-1.15-.43-1.16-.48-1.18-.56-1.2-.63-1.22-.7-1.26-.8-1.3-.9-1.34-1.03-1.4-1.15-1.46-1.32-1.54-1.5-1.62-1.74-1.73-2-1.86-2.36-2-2.76-2.17-3.3-2.4-3.97-2.7-4.9-3.08-6.2-3.6-8.1-4.4-11.17-5.92-17.1-14.08-47.84-15.47-52.84-5.92-17.1-4.4-11.15-3.6-8.1-3.07-6.2-2.7-4.9-2.4-4-2.2-3.28-2-2.76-1.85-2.35-1.73-2-1.63-1.72-1.55-1.5-1.46-1.33-1.4-1.15-1.35-1.03-.7-.48M1699.5 790l2.9.78" stroke="#999" stroke-width="2" fill="none"/><path d="M1578.08 541.05l-2.9 8.8-12.1-8.84z" fill="#999"/><path d="M1579.45 540.05l-3.74 11.43L1560 540zm-4.78 8.2l2.03-6.2-10.55-.03z" fill="#999"/><path d="M1400 540h-58.04" fill="none"/><path d="M1400 540h-9.67m-9.68 0h-19.34m-9.66 0h-9.68" stroke="#999" stroke-width="2" fill="none"/><path d="M1400 540v.38l.03.62h-.03v-2h.03zM1359.7 530.68l-15.77 9.32 15.76 9.32-1.03 1.72L1340 540l18.67-11.04z" fill="#999"/><path d="M1080 693.4c0 33.15-53.73 60-120 60-66.27 0-120-26.85-120-60 0-33.13 53.73-60 120-60 66.27 0 120 26.87 120 60z" stroke="#000" stroke-opacity="0" fill="#dedffc"/><use xlink:href="#A" transform="matrix(1,0,0,1,840,633.4084453247691) translate(33.68000000000001 51.9)"/><use xlink:href="#B" transform="matrix(1,0,0,1,840,633.4084453247691) translate(168.43 51.9)"/><use xlink:href="#C" transform="matrix(1,0,0,1,840,633.4084453247691) translate(88.53 73.5)"/><path d="M78.25 699.36l743.5-5.8" stroke="#999" stroke-width="2" fill="none"/><path d="M63.25 699.47l14.22-4.74.08 9.27z" stroke="#999" stroke-width="2" fill="#999"/><path d="M836.76 693.43l-14.23 4.75-.07-9.27z" fill="#999"/><path d="M840 693.4l-18.45 6.16-.1-12.02zm-16.48 3.4l10-3.34-10.05-3.18z" fill="#999"/><path d="M1681.76 699.32l-583.52-5.73" stroke="#999" stroke-width="2" fill="none"/><path d="M1696.76 699.47l-14.3 4.5.08-9.28z" stroke="#999" stroke-width="2" fill="#999"/><path d="M1097.46 698.22l-14.22-4.78 14.3-4.5z" fill="#999"/><path d="M1098.44 699.6l-18.44-6.2 18.56-5.82zm-11.97-6.13l10 3.36.06-6.52z" fill="#999"/><path d="M62.47 1141.48l.4-1.42.9-2.77 1.04-2.8 1.2-2.85 1.37-2.9 1.54-2.95 1.77-3.03 1.98-3.12 2.25-3.23 2.55-3.36 2.9-3.5 3.3-3.68 3.82-3.88 4.38-4.12 5.1-4.4 5.96-4.7 7.04-5.12 8.4-5.57 10.16-6.15 12.48-6.85 15.62-7.74 20.06-8.9 26.67-10.53 37.3-12.94 57.36-17.2 119-30.1 305-72.58 57.36-17.2 37.3-12.94 26.68-10.53 20.06-8.9 15.62-7.74 12.48-6.84 10.15-6.14 8.4-5.58 7.04-5.1 5.95-4.72 5.1-4.4 4.38-4.1 3.8-3.9 3.32-3.67 2.9-3.5 2.55-3.36 2.25-3.24 1.98-3.13 1.76-3.03 1.53-2.95 1.36-2.9 1.2-2.83 1.03-2.8.9-2.77.4-1.43" stroke="#999" stroke-width="2" fill="none"/><path d="M66.97 1142.8l-6.53 13.5-2.65-14.78z" fill="#999"/><path d="M68.47 1141.98l-8.47 17.5-3.44-19.13zm-7.6 11.1l4.6-9.5-6.45-.88zM962.2 771.38l-9.17-1.26 6.53-13.5z" fill="#999"/><path d="M963.44 772.56l-11.9-1.64 8.46-17.5zm-8.9-3.25l6.44.9-1.86-10.38z" fill="#999"/><path d="M380 900v-48.04" fill="none"/><path d="M380 900v-8m0-8v-16.02m0-8v-8.02" stroke="#999" stroke-width="2" fill="none"/><path d="M381 900.03l-1-.03h-1 2zM391.04 868.67l-1.72 1.02-9.32-15.77-9.32 15.76-1.72-1.03L380 850z" fill="#999"/><path d="M460 540c0 33.14-35.82 60-80 60s-80-26.86-80-60 35.82-60 80-60 80 26.86 80 60z" stroke="#000" stroke-opacity="0" fill="#dedffc"/><use xlink:href="#D" transform="matrix(1,0,0,1,300,480) translate(19.604999999999997 63.15)"/><use xlink:href="#E" transform="matrix(1,0,0,1,300,480) translate(89.555 63.15)"/><path d="M60.52 790l3.54-.07 3.4-.22 3.32-.34 3.22-.47 3.14-.6 3.1-.74 3.05-.85 3-.97 3-1.12 3-1.25 3.02-1.42 3.03-1.58 3.07-1.77 3.12-2 3.2-2.2 3.27-2.5 3.4-2.8 3.54-3.2 3.7-3.62 3.93-4.18 4.2-4.87 4.56-5.75 5.04-6.96 5.76-8.68 6.88-11.4 9.2-16.8 47.3-94.05 6.9-11.4 5.74-8.66 5.05-6.95 4.55-5.76 4.2-4.88 3.92-4.18 3.7-3.63 3.54-3.18 3.4-2.8 3.28-2.5 3.2-2.2 3.12-2 3.07-1.77 3.03-1.58 3-1.42 3-1.26 3-1.13 3.03-.98 3.05-.86 1.64-.4M60.52 790l-3 .28" stroke="#999" stroke-width="2" fill="none"/><path d="M296.78 540.37l-13.65 6.2-1.04-9.2z" fill="#999"/><path d="M300 540l-17.7 8.06-1.36-11.95zm-16.03 5.1l9.6-4.37-10.33-2.1z" fill="#999"/><path d="M60 1159.5L343.5 658.3l26.84-42.84" stroke="#999" stroke-width="2" fill="none"/><path d="M60.88 1159.98v.02h-2.3l.55-1zM374.64 617.3l-7.86-4.93 11.5-9.63z" fill="#999"/><path d="M375.27 618.87l-10.2-6.38L380 600zm-6.8-6.6l5.53 3.45 2.56-10.23z" fill="#999"/><path d="M680 200h78.04" fill="none"/><path d="M680 200h8.67m8.67 0h17.34m8.67 0h17.34m8.67 0h8.67" stroke="#999" stroke-width="2" fill="none"/><path d="M680 201h-.03l.03-1v-.38l-.03-.62h.03zM760 200l-18.67 11.04-1.02-1.72 15.77-9.32-15.76-9.32 1.03-1.72z" fill="#999"/><path d="M60.52 1250l62.3 1.16L300 1260M60.52 1250l-3-.06" stroke="#999" stroke-width="2" fill="none"/><path d="M300 1260.38l.03.62h-.08l.05-1z" fill="#999"/><path d="M460 1100c0 33.14-35.82 60-80 60s-80-26.86-80-60 35.82-60 80-60 80 26.86 80 60z" stroke="#000" stroke-opacity="0" fill="#dedffc"/><use xlink:href="#F" transform="matrix(1,0,0,1,300,1040) translate(14.579999999999993 63.15)"/><use xlink:href="#G" transform="matrix(1,0,0,1,300,1040) translate(98.48 63.15)"/><path d="M478.25 1099.65l180.65-3.5 139.57-8.67 126.07-13.3 397-51.66 139.56-8.67 196.94-3.8" fill="none"/><path d="M478.25 1099.65l10.12-.2m10.12-.2l20.24-.4m10.12-.18l20.24-.4m10.12-.2l20.25-.38m10.12-.2l20.23-.4m10.12-.2l20.25-.4m10.12-.2l8.58-.15 11.64-.73m10.1-.62l20.2-1.26m10.12-.62l20.2-1.26m10.1-.63l20.22-1.25m10.1-.63l20.2-1.25m10.1-.78L822 1085m10.08-1.06l20.14-2.12m10.06-1.06l20.14-2.13m10.07-1.06l20.12-2.12m10.07-1.06l1.84-.2 18.23-2.38m10.04-1.3l20.1-2.62m10.03-1.3l20.08-2.62m10.04-1.3l20.08-2.62m10.04-1.3l20.08-2.62m10.04-1.3l20.07-2.62m10.04-1.3l20.07-2.62m10.04-1.3l20.1-2.62m10.03-1.3l20.07-2.62m10.04-1.3l20.08-2.62m10.04-1.3l20.08-2.62m10.03-1.3l20.08-2.62m10.04-1.3l20.07-2.62m10.04-1.3l7.33-.96 12.84-.8m10.1-.63l20.2-1.26m10.1-.63l20.22-1.24m10.1-.63l20.2-1.25m10.1-.63l20.2-1.26m10.13-.44l20.24-.4m10.12-.18l20.23-.4m10.13-.2l20.24-.38m10.12-.2l20.24-.4m10.13-.2l20.23-.38m10.12-.2l20.24-.4m10.1-.2l10.14-.18" stroke="#999" stroke-width="2" fill="none"/><path d="M477.6 1104.3l-14.35-4.36 14.18-4.9z" fill="#999"/><path d="M478.63 1105.65l-18.6-5.65 18.37-6.37zm-12.14-5.78l10.08 3.07-.13-6.52zM1660 1010l-18.45 11.4-1.05-1.7 15.57-9.62-15.93-9.02.98-1.74z" fill="#999"/><path d="M1681.26 790.37l-53.72 1.1-62.26 3.9-55.05 5.75-49.7 7.33-45.78 8.72-43.15 10.12-41.7 11.63-41.7 13.55-43.75 16.3-50.46 21.25-85.58 40.67-142.9 69.27-50.45 21.26-43.76 16.3-41.68 13.54-41.7 11.64-43.16 10.13-45.8 8.72-49.68 7.33-55.05 5.76-62.26 3.9-71.95 1.46H460" stroke="#999" stroke-width="2" fill="none"/><path d="M1696.26 790.07L1682.1 795l-.2-9.28z" stroke="#999" stroke-width="2" fill="#999"/><path d="M460.02 1101h-.05l.03-1zm-.03-1.7l-.03-.3z" fill="#999"/><path d="M78.52 792.5l.8.24 2.56.83 2.55.95L87 795.6l2.58 1.22 2.62 1.36 2.66 1.54 2.7 1.72 2.8 1.94 2.86 2.17 2.97 2.46 3.08 2.8 3.23 3.17 3.43 3.64 3.64 4.22 3.9 4.93 4.24 5.84 4.68 7.03 5.25 8.7 6.1 11.1 7.45 15.06 10.37 23.4 47.8 117.6 7.45 15.08 6.1 11.1 5.24 8.7 4.67 7.03 4.25 5.85 3.9 4.93 3.64 4.2 3.4 3.65 3.24 3.18 3.1 2.8 2.96 2.45 2.87 2.17 2.78 1.94 2.7 1.72 2.67 1.54 2.6 1.36 2.6 1.22 2.56 1.08 2.56.95 2.56.83 2.57.72 2.58.6 2.62.5 2.67.4 2.7.3 2.8.16 2.86.06" stroke="#999" stroke-width="2" fill="none"/><path d="M63.73 790.45l14.77-2.62-1.3 9.18z" stroke="#999" stroke-width="2" fill="#999"/><path d="M300 1100.38l.03.63h-.14l.1-1z" fill="#999"/><path d="M1120 516.7c0 33.14-35.82 60-80 60s-80-26.86-80-60c0-33.13 35.82-60 80-60s80 26.87 80 60z" stroke="#000" stroke-opacity="0" fill="#dedffc"/><g><use xlink:href="#H" transform="matrix(1,0,0,1,960,456.70422266238455) translate(20.07999999999999 63.15)"/><use xlink:href="#f" transform="matrix(1,0,0,1,960,456.70422266238455) translate(101.93 63.15)"/></g><path d="M1175.7 538.83l4.34.17-.08 2-4.42-.18-3.57-.44.25-2zm-18.57-6.47l3.28 1.98 2.86 1.4 1.56.62-.73 1.86-1.65-.64-3-1.48-3.42-2.07-5.72-4.06 1.16-1.63zm-16.55-11.74l4.4 3.13-1.15 1.63-4.27-3.03-2.28-1.13.9-1.8z" fill="#999"/><path d="M1180 540v.38l.03.64-.2-.03.17-1zM1136.22 524.75l-.26-.15v-8.7l2.12-.23zm-4.58-2.6l-8.47-4.8 8.47-.96z" fill="#999"/><path d="M1136.92 526.3l-.96-.55v-4.73l.86-4.2-.86.1v-2.02l3.37-.38zm-5.28-8.9l-5.3.6 5.3 3v2.3l-11.64-6.6 11.64-1.3z" fill="#999"/><g><use xlink:href="#I" transform="matrix(1,0,0,1,1131.6398066570082,509.4369895152211) translate(-5.7055 12.444444444444446)"/></g><path d="M1040 456.7l.2-4.74.52-3.92.76-3.4 1-3.12 1.28-3.07 1.8-3.4 10.68-16.8.2-.5" fill="none"/><path d="M1040 456.7l.2-4.74.52-3.92.76-3.4.66-2.08m6.7-12.65l7.4-11.64.2-.52" stroke="#999" stroke-width="2" fill="none"/><path d="M1040 456.7h-1v-.15zM1061.12 418.07l-9.1-1.82 7.35-13.08z" fill="#999"/><path d="M1062.27 419.32l-11.8-2.36L1060 400zm-8.7-3.78l6.4 1.28-1.24-10.47z" fill="#999"/><path d="M180 65c0-2.76 2.24-5 5-5h1450c2.76 0 5 2.24 5 5v1290c0 2.76-2.24 5-5 5H185c-2.76 0-5-2.24-5-5z" stroke="#666" fill="none"/><g><use xlink:href="#J" transform="matrix(1,0,0,1,188,68) translate(423.0071861563456 44.63098566234208)"/><use xlink:href="#K" transform="matrix(1,0,0,1,188,68) translate(460.73676332842865 44.63098566234208)"/><use xlink:href="#L" transform="matrix(1,0,0,1,188,68) translate(512.855698761336 44.63098566234208)"/><use xlink:href="#M" transform="matrix(1,0,0,1,188,68) translate(579.930502622817 44.63098566234208)"/><use xlink:href="#N" transform="matrix(1,0,0,1,188,68) translate(604.743647970223 44.63098566234208)"/><use xlink:href="#O" transform="matrix(1,0,0,1,188,68) translate(828.6284662646256 44.63098566234208)"/></g><defs><path fill="#666" d="M63-220v92h138v28H63V0H30v-248h175v28H63" id="P"/><path fill="#666" d="M114-163C36-179 61-72 57 0H25l-1-190h30c1 12-1 29 2 39 6-27 23-49 58-41v29" id="Q"/><path fill="#666" d="M100-194c63 0 86 42 84 106H49c0 40 14 67 53 68 26 1 43-12 49-29l28 8c-11 28-37 45-77 45C44 4 14-33 15-96c1-61 26-98 85-98zm52 81c6-60-76-77-97-28-3 7-6 17-6 28h103" id="R"/><path fill="#666" d="M24 0v-261h32V0H24" id="S"/><path fill="#666" d="M141-36C126-15 110 5 73 4 37 3 15-17 15-53c-1-64 63-63 125-63 3-35-9-54-41-54-24 1-41 7-42 31l-33-3c5-37 33-52 76-52 45 0 72 20 72 64v82c-1 20 7 32 28 27v20c-31 9-61-2-59-35zM48-53c0 20 12 33 32 33 41-3 63-29 60-74-43 2-92-5-92 41" id="T"/><path fill="#666" d="M117-194c89-4 53 116 60 194h-32v-121c0-31-8-49-39-48C34-167 62-67 57 0H25l-1-190h30c1 10-1 24 2 32 11-22 29-35 61-36" id="U"/><path fill="#666" d="M96-169c-40 0-48 33-48 73s9 75 48 75c24 0 41-14 43-38l32 2c-6 37-31 61-74 61-59 0-76-41-82-99-10-93 101-131 147-64 4 7 5 14 7 22l-32 3c-4-21-16-35-41-35" id="V"/><g id="a"><use transform="matrix(0.04320987654320988,0,0,0.04320987654320988,0,0)" xlink:href="#P"/><use transform="matrix(0.04320987654320988,0,0,0.04320987654320988,9.462962962962964,0)" xlink:href="#Q"/><use transform="matrix(0.04320987654320988,0,0,0.04320987654320988,14.60493827160494,0)" xlink:href="#R"/><use transform="matrix(0.04320987654320988,0,0,0.04320987654320988,23.246913580246915,0)" xlink:href="#R"/><use transform="matrix(0.04320987654320988,0,0,0.04320987654320988,31.888888888888893,0)" xlink:href="#S"/><use transform="matrix(0.04320987654320988,0,0,0.04320987654320988,35.302469135802475,0)" xlink:href="#T"/><use transform="matrix(0.04320987654320988,0,0,0.04320987654320988,43.94444444444445,0)" xlink:href="#U"/><use transform="matrix(0.04320987654320988,0,0,0.04320987654320988,52.586419753086425,0)" xlink:href="#V"/><use transform="matrix(0.04320987654320988,0,0,0.04320987654320988,60.3641975308642,0)" xlink:href="#R"/><use transform="matrix(0.04320987654320988,0,0,0.04320987654320988,69.00617283950618,0)" xlink:href="#Q"/></g><path fill="#666" d="M30 0v-248h187v28H63v79h144v27H63v87h162V0H30" id="W"/><path fill="#666" d="M210-169c-67 3-38 105-44 169h-31v-121c0-29-5-50-35-48C34-165 62-65 56 0H25l-1-190h30c1 10-1 24 2 32 10-44 99-50 107 0 11-21 27-35 58-36 85-2 47 119 55 194h-31v-121c0-29-5-49-35-48" id="X"/><path fill="#666" d="M115-194c55 1 70 41 70 98S169 2 115 4C84 4 66-9 55-30l1 105H24l-1-265h31l2 30c10-21 28-34 59-34zm-8 174c40 0 45-34 45-75s-6-73-45-74c-42 0-51 32-51 76 0 43 10 73 51 73" id="Y"/><path fill="#666" d="M100-194c62-1 85 37 85 99 1 63-27 99-86 99S16-35 15-95c0-66 28-99 85-99zM99-20c44 1 53-31 53-75 0-43-8-75-51-75s-53 32-53 75 10 74 51 75" id="Z"/><path fill="#666" d="M179-190L93 31C79 59 56 82 12 73V49c39 6 53-20 64-50L1-190h34L92-34l54-156h33" id="aa"/><g id="b"><use transform="matrix(0.04320987654320988,0,0,0.04320987654320988,0,0)" xlink:href="#W"/><use transform="matrix(0.04320987654320988,0,0,0.04320987654320988,10.370370370370372,0)" xlink:href="#X"/><use transform="matrix(0.04320987654320988,0,0,0.04320987654320988,23.290123456790127,0)" xlink:href="#Y"/><use transform="matrix(0.04320987654320988,0,0,0.04320987654320988,31.9320987654321,0)" xlink:href="#S"/><use transform="matrix(0.04320987654320988,0,0,0.04320987654320988,35.345679012345684,0)" xlink:href="#Z"/><use transform="matrix(0.04320987654320988,0,0,0.04320987654320988,43.98765432098766,0)" xlink:href="#aa"/><use transform="matrix(0.04320987654320988,0,0,0.04320987654320988,51.76543209876544,0)" xlink:href="#R"/><use transform="matrix(0.04320987654320988,0,0,0.04320987654320988,60.40740740740741,0)" xlink:href="#Q"/></g><path d="M30 0v-248h33v221h125V0H30" id="ab"/><path d="M100-194c62-1 85 37 85 99 1 63-27 99-86 99S16-35 15-95c0-66 28-99 85-99zM99-20c44 1 53-31 53-75 0-43-8-75-51-75s-53 32-53 75 10 74 51 75" id="ac"/><path d="M177-190C167-65 218 103 67 71c-23-6-38-20-44-43l32-5c15 47 100 32 89-28v-30C133-14 115 1 83 1 29 1 15-40 15-95c0-56 16-97 71-98 29-1 48 16 59 35 1-10 0-23 2-32h30zM94-22c36 0 50-32 50-73 0-42-14-75-50-75-39 0-46 34-46 75s6 73 46 73" id="ad"/><path d="M24-231v-30h32v30H24zM24 0v-190h32V0H24" id="ae"/><path d="M117-194c89-4 53 116 60 194h-32v-121c0-31-8-49-39-48C34-167 62-67 57 0H25l-1-190h30c1 10-1 24 2 32 11-22 29-35 61-36" id="af"/><g id="c"><use transform="matrix(0.05,0,0,0.05,0,0)" xlink:href="#ab"/><use transform="matrix(0.05,0,0,0.05,10,0)" xlink:href="#ac"/><use transform="matrix(0.05,0,0,0.05,20,0)" xlink:href="#ad"/><use transform="matrix(0.05,0,0,0.05,30,0)" xlink:href="#ae"/><use transform="matrix(0.05,0,0,0.05,33.95,0)" xlink:href="#af"/></g><path d="M233-177c-1 41-23 64-60 70L243 0h-38l-65-103H63V0H30v-248c88 3 205-21 203 71zM63-129c60-2 137 13 137-47 0-61-80-42-137-45v92" id="ag"/><path d="M100-194c63 0 86 42 84 106H49c0 40 14 67 53 68 26 1 43-12 49-29l28 8c-11 28-37 45-77 45C44 4 14-33 15-96c1-61 26-98 85-98zm52 81c6-60-76-77-97-28-3 7-6 17-6 28h103" id="ah"/><path d="M135-143c-3-34-86-38-87 0 15 53 115 12 119 90S17 21 10-45l28-5c4 36 97 45 98 0-10-56-113-15-118-90-4-57 82-63 122-42 12 7 21 19 24 35" id="ai"/><path d="M59-47c-2 24 18 29 38 22v24C64 9 27 4 27-40v-127H5v-23h24l9-43h21v43h35v23H59v120" id="aj"/><path d="M114-163C36-179 61-72 57 0H25l-1-190h30c1 12-1 29 2 39 6-27 23-49 58-41v29" id="ak"/><g id="d"><use transform="matrix(0.05,0,0,0.05,0,0)" xlink:href="#ag"/><use transform="matrix(0.05,0,0,0.05,12.950000000000001,0)" xlink:href="#ah"/><use transform="matrix(0.05,0,0,0.05,22.950000000000003,0)" xlink:href="#ad"/><use transform="matrix(0.05,0,0,0.05,32.95,0)" xlink:href="#ae"/><use transform="matrix(0.05,0,0,0.05,36.900000000000006,0)" xlink:href="#ai"/><use transform="matrix(0.05,0,0,0.05,45.900000000000006,0)" xlink:href="#aj"/><use transform="matrix(0.05,0,0,0.05,50.900000000000006,0)" xlink:href="#ah"/><use transform="matrix(0.05,0,0,0.05,60.900000000000006,0)" xlink:href="#ak"/></g><path d="M205 0l-28-72H64L36 0H1l101-248h38L239 0h-34zm-38-99l-47-123c-12 45-31 82-46 123h93" id="al"/><path d="M85-194c31 0 48 13 60 33l-1-100h32l1 261h-30c-2-10 0-23-3-31C134-8 116 4 85 4 32 4 16-35 15-94c0-66 23-100 70-100zm9 24c-40 0-46 34-46 75 0 40 6 74 45 74 42 0 51-32 51-76 0-42-9-74-50-73" id="am"/><g id="e"><use transform="matrix(0.05,0,0,0.05,0,0)" xlink:href="#al"/><use transform="matrix(0.05,0,0,0.05,12,0)" xlink:href="#am"/><use transform="matrix(0.05,0,0,0.05,22,0)" xlink:href="#am"/></g><path d="M153-248C145-148 188 4 80 4 36 3 13-21 6-62l32-5c4 25 16 42 43 43 27 0 39-20 39-49v-147H72v-28h81" id="an"/><path d="M115-194c53 0 69 39 70 98 0 66-23 100-70 100C84 3 66-7 56-30L54 0H23l1-261h32v101c10-23 28-34 59-34zm-8 174c40 0 45-34 45-75 0-40-5-75-45-74-42 0-51 32-51 76 0 43 10 73 51 73" id="ao"/><g id="f"><use transform="matrix(0.05,0,0,0.05,0,0)" xlink:href="#an"/><use transform="matrix(0.05,0,0,0.05,9,0)" xlink:href="#ac"/><use transform="matrix(0.05,0,0,0.05,19,0)" xlink:href="#ao"/><use transform="matrix(0.05,0,0,0.05,29,0)" xlink:href="#ai"/></g><path d="M137 0h-34L2-248h35l83 218 83-218h36" id="ap"/><path d="M206 0h-36l-40-164L89 0H53L-1-190h32L70-26l43-164h34l41 164 42-164h31" id="aq"/><g id="g"><use transform="matrix(0.05,0,0,0.05,0,0)" xlink:href="#ap"/><use transform="matrix(0.05,0,0,0.05,11.65,0)" xlink:href="#ae"/><use transform="matrix(0.05,0,0,0.05,15.600000000000001,0)" xlink:href="#ah"/><use transform="matrix(0.05,0,0,0.05,25.6,0)" xlink:href="#aq"/></g><path d="M160-131c35 5 61 23 61 61C221 17 115-2 30 0v-248c76 3 177-17 177 60 0 33-19 50-47 57zm-97-11c50-1 110 9 110-42 0-47-63-36-110-37v79zm0 115c55-2 124 14 124-45 0-56-70-42-124-44v89" id="ar"/><g id="h"><use transform="matrix(0.05,0,0,0.05,0,0)" xlink:href="#ar"/><use transform="matrix(0.05,0,0,0.05,12,0)" xlink:href="#ae"/><use transform="matrix(0.05,0,0,0.05,15.949999999999998,0)" xlink:href="#am"/><use transform="matrix(0.05,0,0,0.05,25.950000000000003,0)" xlink:href="#ai"/></g><g id="i"><use transform="matrix(0.05,0,0,0.05,0,0)" xlink:href="#ar"/><use transform="matrix(0.05,0,0,0.05,12,0)" xlink:href="#ae"/><use transform="matrix(0.05,0,0,0.05,15.949999999999998,0)" xlink:href="#am"/></g><path d="M101-234c-31-9-42 10-38 44h38v23H63V0H32v-167H5v-23h27c-7-52 17-82 69-68v24" id="as"/><g id="j"><use transform="matrix(0.05,0,0,0.05,0,0)" xlink:href="#as"/><use transform="matrix(0.05,0,0,0.05,5,0)" xlink:href="#ac"/><use transform="matrix(0.05,0,0,0.05,15,0)" xlink:href="#ak"/></g><path d="M24-231v-30h32v30H24zM-9 49c24 4 33-6 33-30v-209h32V24c2 40-23 58-65 49V49" id="at"/><g id="k"><use transform="matrix(0.05,0,0,0.05,0,0)" xlink:href="#at"/><use transform="matrix(0.05,0,0,0.05,3.95,0)" xlink:href="#ac"/><use transform="matrix(0.05,0,0,0.05,13.949999999999998,0)" xlink:href="#ao"/><use transform="matrix(0.05,0,0,0.05,23.95,0)" xlink:href="#ai"/></g><path fill="#666" d="M18-100v-36l175-74v27L42-118l151 64v27" id="au"/><path fill="#666" d="M205 0l-28-72H64L36 0H1l101-248h38L239 0h-34zm-38-99l-47-123c-12 45-31 82-46 123h93" id="av"/><path fill="#666" d="M84 4C-5 8 30-112 23-190h32v120c0 31 7 50 39 49 72-2 45-101 50-169h31l1 190h-30c-1-10 1-25-2-33-11 22-28 36-60 37" id="aw"/><path fill="#666" d="M59-47c-2 24 18 29 38 22v24C64 9 27 4 27-40v-127H5v-23h24l9-43h21v43h35v23H59v120" id="ax"/><path fill="#666" d="M106-169C34-169 62-67 57 0H25v-261h32l-1 103c12-21 28-36 61-36 89 0 53 116 60 194h-32v-121c2-32-8-49-39-48" id="ay"/><path fill="#666" d="M24-231v-30h32v30H24zM24 0v-190h32V0H24" id="az"/><g id="l"><use transform="matrix(0.04320987654320988,0,0,0.04320987654320988,0,0)" xlink:href="#au"/><use transform="matrix(0.04320987654320988,0,0,0.04320987654320988,9.074074074074074,0)" xlink:href="#au"/><use transform="matrix(0.04320987654320988,0,0,0.04320987654320988,18.14814814814815,0)" xlink:href="#av"/><use transform="matrix(0.04320987654320988,0,0,0.04320987654320988,28.518518518518515,0)" xlink:href="#aw"/><use transform="matrix(0.04320987654320988,0,0,0.04320987654320988,37.160493827160494,0)" xlink:href="#ax"/><use transform="matrix(0.04320987654320988,0,0,0.04320987654320988,41.48148148148148,0)" xlink:href="#ay"/><use transform="matrix(0.04320987654320988,0,0,0.04320987654320988,50.123456790123456,0)" xlink:href="#R"/><use transform="matrix(0.04320987654320988,0,0,0.04320987654320988,58.76543209876543,0)" xlink:href="#U"/><use transform="matrix(0.04320987654320988,0,0,0.04320987654320988,67.4074074074074,0)" xlink:href="#ax"/><use transform="matrix(0.04320987654320988,0,0,0.04320987654320988,71.72839506172839,0)" xlink:href="#az"/><use transform="matrix(0.04320987654320988,0,0,0.04320987654320988,75.14197530864197,0)" xlink:href="#V"/><use transform="matrix(0.04320987654320988,0,0,0.04320987654320988,82.91975308641975,0)" xlink:href="#T"/><use transform="matrix(0.04320987654320988,0,0,0.04320987654320988,91.56172839506172,0)" xlink:href="#ax"/><use transform="matrix(0.04320987654320988,0,0,0.04320987654320988,95.88271604938271,0)" xlink:href="#az"/><use transform="matrix(0.04320987654320988,0,0,0.04320987654320988,99.29629629629629,0)" xlink:href="#Z"/><use transform="matrix(0.04320987654320988,0,0,0.04320987654320988,107.93827160493827,0)" xlink:href="#U"/></g><path fill="#666" d="M185-189c-5-48-123-54-124 2 14 75 158 14 163 119 3 78-121 87-175 55-17-10-28-26-33-46l33-7c5 56 141 63 141-1 0-78-155-14-162-118-5-82 145-84 179-34 5 7 8 16 11 25" id="aA"/><path fill="#666" d="M108 0H70L1-190h34L89-25l56-165h34" id="aB"/><path fill="#666" d="M18-27v-27l151-64-151-65v-27l175 74v36" id="aC"/><g id="m"><use transform="matrix(0.04320987654320988,0,0,0.04320987654320988,0,0)" xlink:href="#aA"/><use transform="matrix(0.04320987654320988,0,0,0.04320987654320988,10.370370370370372,0)" xlink:href="#R"/><use transform="matrix(0.04320987654320988,0,0,0.04320987654320988,19.01234567901235,0)" xlink:href="#Q"/><use transform="matrix(0.04320987654320988,0,0,0.04320987654320988,24.154320987654323,0)" xlink:href="#aB"/><use transform="matrix(0.04320987654320988,0,0,0.04320987654320988,31.9320987654321,0)" xlink:href="#az"/><use transform="matrix(0.04320987654320988,0,0,0.04320987654320988,35.345679012345684,0)" xlink:href="#V"/><use transform="matrix(0.04320987654320988,0,0,0.04320987654320988,43.12345679012346,0)" xlink:href="#R"/><use transform="matrix(0.04320987654320988,0,0,0.04320987654320988,51.76543209876544,0)" xlink:href="#aC"/><use transform="matrix(0.04320987654320988,0,0,0.04320987654320988,60.83950617283951,0)" xlink:href="#aC"/></g><path d="M185-189c-5-48-123-54-124 2 14 75 158 14 163 119 3 78-121 87-175 55-17-10-28-26-33-46l33-7c5 56 141 63 141-1 0-78-155-14-162-118-5-82 145-84 179-34 5 7 8 16 11 25" id="aD"/><path d="M24 0v-261h32V0H24" id="aE"/><path d="M96-169c-40 0-48 33-48 73s9 75 48 75c24 0 41-14 43-38l32 2c-6 37-31 61-74 61-59 0-76-41-82-99-10-93 101-131 147-64 4 7 5 14 7 22l-32 3c-4-21-16-35-41-35" id="aF"/><g id="n"><use transform="matrix(0.05,0,0,0.05,0,0)" xlink:href="#aD"/><use transform="matrix(0.05,0,0,0.05,12,0)" xlink:href="#ah"/><use transform="matrix(0.05,0,0,0.05,22,0)" xlink:href="#aE"/><use transform="matrix(0.05,0,0,0.05,25.950000000000003,0)" xlink:href="#ah"/><use transform="matrix(0.05,0,0,0.05,35.95,0)" xlink:href="#aF"/><use transform="matrix(0.05,0,0,0.05,44.95,0)" xlink:href="#aj"/></g><path d="M210-169c-67 3-38 105-44 169h-31v-121c0-29-5-50-35-48C34-165 62-65 56 0H25l-1-190h30c1 10-1 24 2 32 10-44 99-50 107 0 11-21 27-35 58-36 85-2 47 119 55 194h-31v-121c0-29-5-49-35-48" id="aG"/><g id="o"><use transform="matrix(0.05,0,0,0.05,0,0)" xlink:href="#as"/><use transform="matrix(0.05,0,0,0.05,5,0)" xlink:href="#ak"/><use transform="matrix(0.05,0,0,0.05,10.95,0)" xlink:href="#ac"/><use transform="matrix(0.05,0,0,0.05,20.95,0)" xlink:href="#aG"/></g><g id="p"><use transform="matrix(0.05,0,0,0.05,0,0)" xlink:href="#ao"/><use transform="matrix(0.05,0,0,0.05,10,0)" xlink:href="#ae"/><use transform="matrix(0.05,0,0,0.05,13.949999999999998,0)" xlink:href="#am"/><use transform="matrix(0.05,0,0,0.05,23.95,0)" xlink:href="#am"/><use transform="matrix(0.05,0,0,0.05,33.95,0)" xlink:href="#ah"/><use transform="matrix(0.05,0,0,0.05,43.95,0)" xlink:href="#ak"/><use transform="matrix(0.05,0,0,0.05,49.900000000000006,0)" xlink:href="#ai"/></g><path d="M30-248c87 1 191-15 191 75 0 78-77 80-158 76V0H30v-248zm33 125c57 0 124 11 124-50 0-59-68-47-124-48v98" id="aH"/><path d="M141-36C126-15 110 5 73 4 37 3 15-17 15-53c-1-64 63-63 125-63 3-35-9-54-41-54-24 1-41 7-42 31l-33-3c5-37 33-52 76-52 45 0 72 20 72 64v82c-1 20 7 32 28 27v20c-31 9-61-2-59-35zM48-53c0 20 12 33 32 33 41-3 63-29 60-74-43 2-92-5-92 41" id="aI"/><path d="M179-190L93 31C79 59 56 82 12 73V49c39 6 53-20 64-50L1-190h34L92-34l54-156h33" id="aJ"/><g id="q"><use transform="matrix(0.05,0,0,0.05,0,0)" xlink:href="#aH"/><use transform="matrix(0.05,0,0,0.05,12,0)" xlink:href="#aI"/><use transform="matrix(0.05,0,0,0.05,22,0)" xlink:href="#aJ"/></g><g id="r"><use transform="matrix(0.05,0,0,0.05,0,0)" xlink:href="#ao"/><use transform="matrix(0.05,0,0,0.05,10,0)" xlink:href="#ae"/><use transform="matrix(0.05,0,0,0.05,13.949999999999998,0)" xlink:href="#am"/><use transform="matrix(0.05,0,0,0.05,23.95,0)" xlink:href="#am"/><use transform="matrix(0.05,0,0,0.05,33.95,0)" xlink:href="#ah"/><use transform="matrix(0.05,0,0,0.05,43.95,0)" xlink:href="#ak"/></g><path d="M108 0H70L1-190h34L89-25l56-165h34" id="aK"/><g id="s"><use transform="matrix(0.05,0,0,0.05,0,0)" xlink:href="#ag"/><use transform="matrix(0.05,0,0,0.05,12.950000000000001,0)" xlink:href="#ah"/><use transform="matrix(0.05,0,0,0.05,22.950000000000003,0)" xlink:href="#aF"/><use transform="matrix(0.05,0,0,0.05,31.950000000000003,0)" xlink:href="#ah"/><use transform="matrix(0.05,0,0,0.05,41.95,0)" xlink:href="#ae"/><use transform="matrix(0.05,0,0,0.05,45.900000000000006,0)" xlink:href="#aK"/><use transform="matrix(0.05,0,0,0.05,54.900000000000006,0)" xlink:href="#ah"/></g><g id="t"><use transform="matrix(0.05,0,0,0.05,0,0)" xlink:href="#aH"/><use transform="matrix(0.05,0,0,0.05,12,0)" xlink:href="#aI"/><use transform="matrix(0.05,0,0,0.05,22,0)" xlink:href="#aJ"/><use transform="matrix(0.05,0,0,0.05,31,0)" xlink:href="#aG"/><use transform="matrix(0.05,0,0,0.05,45.95,0)" xlink:href="#ah"/><use transform="matrix(0.05,0,0,0.05,55.95,0)" xlink:href="#af"/><use transform="matrix(0.05,0,0,0.05,65.95,0)" xlink:href="#aj"/></g><path fill="#666" d="M30-248c87 1 191-15 191 75 0 78-77 80-158 76V0H30v-248zm33 125c57 0 124 11 124-50 0-59-68-47-124-48v98" id="aL"/><g id="u"><use transform="matrix(0.04320987654320988,0,0,0.04320987654320988,0,0)" xlink:href="#au"/><use transform="matrix(0.04320987654320988,0,0,0.04320987654320988,9.074074074074074,0)" xlink:href="#au"/><use transform="matrix(0.04320987654320988,0,0,0.04320987654320988,18.14814814814815,0)" xlink:href="#aL"/><use transform="matrix(0.04320987654320988,0,0,0.04320987654320988,28.518518518518515,0)" xlink:href="#T"/><use transform="matrix(0.04320987654320988,0,0,0.04320987654320988,37.160493827160494,0)" xlink:href="#aa"/><use transform="matrix(0.04320987654320988,0,0,0.04320987654320988,44.93827160493828,0)" xlink:href="#X"/><use transform="matrix(0.04320987654320988,0,0,0.04320987654320988,57.85802469135802,0)" xlink:href="#R"/><use transform="matrix(0.04320987654320988,0,0,0.04320987654320988,66.5,0)" xlink:href="#U"/><use transform="matrix(0.04320987654320988,0,0,0.04320987654320988,75.14197530864197,0)" xlink:href="#ax"/></g><path fill="#666" d="M177-190C167-65 218 103 67 71c-23-6-38-20-44-43l32-5c15 47 100 32 89-28v-30C133-14 115 1 83 1 29 1 15-40 15-95c0-56 16-97 71-98 29-1 48 16 59 35 1-10 0-23 2-32h30zM94-22c36 0 50-32 50-73 0-42-14-75-50-75-39 0-46 34-46 75s6 73 46 73" id="aM"/><g id="v"><use transform="matrix(0.04320987654320988,0,0,0.04320987654320988,0,0)" xlink:href="#X"/><use transform="matrix(0.04320987654320988,0,0,0.04320987654320988,12.919753086419755,0)" xlink:href="#T"/><use transform="matrix(0.04320987654320988,0,0,0.04320987654320988,21.56172839506173,0)" xlink:href="#U"/><use transform="matrix(0.04320987654320988,0,0,0.04320987654320988,30.203703703703713,0)" xlink:href="#T"/><use transform="matrix(0.04320987654320988,0,0,0.04320987654320988,38.845679012345684,0)" xlink:href="#aM"/><use transform="matrix(0.04320987654320988,0,0,0.04320987654320988,47.48765432098766,0)" xlink:href="#R"/><use transform="matrix(0.04320987654320988,0,0,0.04320987654320988,56.12962962962963,0)" xlink:href="#X"/><use transform="matrix(0.04320987654320988,0,0,0.04320987654320988,69.0493827160494,0)" xlink:href="#R"/><use transform="matrix(0.04320987654320988,0,0,0.04320987654320988,77.69135802469137,0)" xlink:href="#U"/><use transform="matrix(0.04320987654320988,0,0,0.04320987654320988,86.33333333333334,0)" xlink:href="#ax"/><use transform="matrix(0.04320987654320988,0,0,0.04320987654320988,90.65432098765433,0)" xlink:href="#aC"/><use transform="matrix(0.04320987654320988,0,0,0.04320987654320988,99.7283950617284,0)" xlink:href="#aC"/></g><path fill="#666" d="M85-194c31 0 48 13 60 33l-1-100h32l1 261h-30c-2-10 0-23-3-31C134-8 116 4 85 4 32 4 16-35 15-94c0-66 23-100 70-100zm9 24c-40 0-46 34-46 75 0 40 6 74 45 74 42 0 51-32 51-76 0-42-9-74-50-73" id="aN"/><g id="w"><use transform="matrix(0.04320987654320988,0,0,0.04320987654320988,0,0)" xlink:href="#av"/><use transform="matrix(0.04320987654320988,0,0,0.04320987654320988,10.370370370370372,0)" xlink:href="#aN"/><use transform="matrix(0.04320987654320988,0,0,0.04320987654320988,19.01234567901235,0)" xlink:href="#X"/><use transform="matrix(0.04320987654320988,0,0,0.04320987654320988,31.9320987654321,0)" xlink:href="#az"/><use transform="matrix(0.04320987654320988,0,0,0.04320987654320988,35.345679012345684,0)" xlink:href="#U"/></g><path d="M143 0L79-87 56-68V0H24v-261h32v163l83-92h37l-77 82L181 0h-38" id="aO"/><g id="x"><use transform="matrix(0.05,0,0,0.05,0,0)" xlink:href="#ar"/><use transform="matrix(0.05,0,0,0.05,12,0)" xlink:href="#aE"/><use transform="matrix(0.05,0,0,0.05,15.949999999999998,0)" xlink:href="#ac"/><use transform="matrix(0.05,0,0,0.05,25.950000000000003,0)" xlink:href="#aF"/><use transform="matrix(0.05,0,0,0.05,34.95,0)" xlink:href="#aO"/></g><path d="M84 4C-5 8 30-112 23-190h32v120c0 31 7 50 39 49 72-2 45-101 50-169h31l1 190h-30c-1-10 1-25-2-33-11 22-28 36-60 37" id="aP"/><g id="y"><use transform="matrix(0.05,0,0,0.05,0,0)" xlink:href="#aP"/><use transform="matrix(0.05,0,0,0.05,10,0)" xlink:href="#ai"/><use transform="matrix(0.05,0,0,0.05,19,0)" xlink:href="#ah"/><use transform="matrix(0.05,0,0,0.05,29,0)" xlink:href="#ak"/><use transform="matrix(0.05,0,0,0.05,34.95,0)" xlink:href="#ai"/></g><path d="M106-169C34-169 62-67 57 0H25v-261h32l-1 103c12-21 28-36 61-36 89 0 53 116 60 194h-32v-121c2-32-8-49-39-48" id="aQ"/><g id="z"><use transform="matrix(0.05,0,0,0.05,0,0)" xlink:href="#aD"/><use transform="matrix(0.05,0,0,0.05,12,0)" xlink:href="#ah"/><use transform="matrix(0.05,0,0,0.05,22,0)" xlink:href="#aI"/><use transform="matrix(0.05,0,0,0.05,32,0)" xlink:href="#ak"/><use transform="matrix(0.05,0,0,0.05,37.95,0)" xlink:href="#aF"/><use transform="matrix(0.05,0,0,0.05,46.95,0)" xlink:href="#aQ"/></g><path d="M212-179c-10-28-35-45-73-45-59 0-87 40-87 99 0 60 29 101 89 101 43 0 62-24 78-52l27 14C228-24 195 4 139 4 59 4 22-46 18-125c-6-104 99-153 187-111 19 9 31 26 39 46" id="aR"/><path d="M0 4l72-265h28L28 4H0" id="aS"/><g id="A"><use transform="matrix(0.05,0,0,0.05,0,0)" xlink:href="#aR"/><use transform="matrix(0.05,0,0,0.05,12.950000000000001,0)" xlink:href="#ac"/><use transform="matrix(0.05,0,0,0.05,22.950000000000003,0)" xlink:href="#aG"/><use transform="matrix(0.05,0,0,0.05,37.900000000000006,0)" xlink:href="#aG"/><use transform="matrix(0.05,0,0,0.05,52.85,0)" xlink:href="#aP"/><use transform="matrix(0.05,0,0,0.05,62.85,0)" xlink:href="#af"/><use transform="matrix(0.05,0,0,0.05,72.85000000000001,0)" xlink:href="#ae"/><use transform="matrix(0.05,0,0,0.05,76.80000000000001,0)" xlink:href="#aF"/><use transform="matrix(0.05,0,0,0.05,85.80000000000001,0)" xlink:href="#aI"/><use transform="matrix(0.05,0,0,0.05,95.80000000000001,0)" xlink:href="#aj"/><use transform="matrix(0.05,0,0,0.05,100.80000000000001,0)" xlink:href="#ae"/><use transform="matrix(0.05,0,0,0.05,104.75,0)" xlink:href="#ac"/><use transform="matrix(0.05,0,0,0.05,114.75,0)" xlink:href="#af"/><use transform="matrix(0.05,0,0,0.05,124.75,0)" xlink:href="#aS"/></g><path d="M232-93c-1 65-40 97-104 97C67 4 28-28 28-90v-158h33c8 89-33 224 67 224 102 0 64-133 71-224h33v155" id="aT"/><g id="B"><use transform="matrix(0.05,0,0,0.05,0,0)" xlink:href="#aT"/><use transform="matrix(0.05,0,0,0.05,12.950000000000001,0)" xlink:href="#ai"/><use transform="matrix(0.05,0,0,0.05,21.950000000000003,0)" xlink:href="#ah"/><use transform="matrix(0.05,0,0,0.05,31.950000000000003,0)" xlink:href="#ak"/></g><path d="M115-194c55 1 70 41 70 98S169 2 115 4C84 4 66-9 55-30l1 105H24l-1-265h31l2 30c10-21 28-34 59-34zm-8 174c40 0 45-34 45-75s-6-73-45-74c-42 0-51 32-51 76 0 43 10 73 51 73" id="aU"/><g id="C"><use transform="matrix(0.05,0,0,0.05,0,0)" xlink:href="#aD"/><use transform="matrix(0.05,0,0,0.05,12,0)" xlink:href="#aP"/><use transform="matrix(0.05,0,0,0.05,22,0)" xlink:href="#aU"/><use transform="matrix(0.05,0,0,0.05,32,0)" xlink:href="#aU"/><use transform="matrix(0.05,0,0,0.05,42,0)" xlink:href="#ac"/><use transform="matrix(0.05,0,0,0.05,52,0)" xlink:href="#ak"/><use transform="matrix(0.05,0,0,0.05,57.95,0)" xlink:href="#aj"/></g><path d="M240 0l2-218c-23 76-54 145-80 218h-23L58-218 59 0H30v-248h44l77 211c21-75 51-140 76-211h43V0h-30" id="aV"/><g id="D"><use transform="matrix(0.05,0,0,0.05,0,0)" xlink:href="#aV"/><use transform="matrix(0.05,0,0,0.05,14.950000000000001,0)" xlink:href="#aI"/><use transform="matrix(0.05,0,0,0.05,24.950000000000003,0)" xlink:href="#af"/><use transform="matrix(0.05,0,0,0.05,34.95,0)" xlink:href="#aI"/><use transform="matrix(0.05,0,0,0.05,44.95,0)" xlink:href="#ad"/><use transform="matrix(0.05,0,0,0.05,54.95,0)" xlink:href="#ah"/></g><g id="E"><use transform="matrix(0.05,0,0,0.05,0,0)" xlink:href="#aH"/><use transform="matrix(0.05,0,0,0.05,12,0)" xlink:href="#ak"/><use transform="matrix(0.05,0,0,0.05,17.95,0)" xlink:href="#ac"/><use transform="matrix(0.05,0,0,0.05,27.950000000000003,0)" xlink:href="#as"/><use transform="matrix(0.05,0,0,0.05,32.95,0)" xlink:href="#ae"/><use transform="matrix(0.05,0,0,0.05,36.900000000000006,0)" xlink:href="#aE"/><use transform="matrix(0.05,0,0,0.05,40.85000000000001,0)" xlink:href="#ah"/></g><g id="F"><use transform="matrix(0.05,0,0,0.05,0,0)" xlink:href="#aH"/><use transform="matrix(0.05,0,0,0.05,12,0)" xlink:href="#aI"/><use transform="matrix(0.05,0,0,0.05,22,0)" xlink:href="#ai"/><use transform="matrix(0.05,0,0,0.05,31,0)" xlink:href="#ai"/><use transform="matrix(0.05,0,0,0.05,40,0)" xlink:href="#aq"/><use transform="matrix(0.05,0,0,0.05,52.95,0)" xlink:href="#ac"/><use transform="matrix(0.05,0,0,0.05,62.95,0)" xlink:href="#ak"/><use transform="matrix(0.05,0,0,0.05,68.9,0)" xlink:href="#am"/></g><g id="G"><use transform="matrix(0.05,0,0,0.05,0,0)" xlink:href="#ag"/><use transform="matrix(0.05,0,0,0.05,12.950000000000001,0)" xlink:href="#ah"/><use transform="matrix(0.05,0,0,0.05,22.950000000000003,0)" xlink:href="#ai"/><use transform="matrix(0.05,0,0,0.05,31.950000000000003,0)" xlink:href="#ah"/><use transform="matrix(0.05,0,0,0.05,41.95,0)" xlink:href="#aj"/></g><g id="H"><use transform="matrix(0.05,0,0,0.05,0,0)" xlink:href="#aR"/><use transform="matrix(0.05,0,0,0.05,12.950000000000001,0)" xlink:href="#ac"/><use transform="matrix(0.05,0,0,0.05,22.950000000000003,0)" xlink:href="#aG"/><use transform="matrix(0.05,0,0,0.05,37.900000000000006,0)" xlink:href="#aU"/><use transform="matrix(0.05,0,0,0.05,47.900000000000006,0)" xlink:href="#aE"/><use transform="matrix(0.05,0,0,0.05,51.85,0)" xlink:href="#ah"/><use transform="matrix(0.05,0,0,0.05,61.85,0)" xlink:href="#aj"/><use transform="matrix(0.05,0,0,0.05,66.85000000000001,0)" xlink:href="#ah"/></g><path fill="#666" d="M72 4L0-261h28L100 4H72" id="aW"/><use transform="matrix(0.04320987654320988,0,0,0.04320987654320988,0,0)" xlink:href="#aW" id="I"/><use transform="matrix(0.11330203354979888,0,0,0.11330203354979888,0,0)" xlink:href="#aL" id="J"/><path fill="#666" d="M135-143c-3-34-86-38-87 0 15 53 115 12 119 90S17 21 10-45l28-5c4 36 97 45 98 0-10-56-113-15-118-90-4-57 82-63 122-42 12 7 21 19 24 35" id="aX"/><g id="K"><use transform="matrix(0.11330203354979888,0,0,0.11330203354979888,0,0)" xlink:href="#aB"/><use transform="matrix(0.11330203354979888,0,0,0.11330203354979888,20.3943660389638,0)" xlink:href="#aX"/></g><path fill="#666" d="M190 0L58-211 59 0H30v-248h39L202-35l-2-213h31V0h-41" id="aY"/><g id="L"><use transform="matrix(0.11330203354979888,0,0,0.11330203354979888,0,0)" xlink:href="#aY"/><use transform="matrix(0.11330203354979888,0,0,0.11330203354979888,29.34522668939791,0)" xlink:href="#aL"/></g><path fill="#666" d="M87 75C49 33 22-17 22-94c0-76 28-126 65-167h31c-38 41-64 92-64 168S80 34 118 75H87" id="aZ"/><use transform="matrix(0.11330203354979888,0,0,0.11330203354979888,0,0)" xlink:href="#aZ" id="M"/><g id="N"><use transform="matrix(0.11330203354979888,0,0,0.11330203354979888,0,0)" xlink:href="#P"/><use transform="matrix(0.11330203354979888,0,0,0.11330203354979888,24.813145347405957,0)" xlink:href="#Q"/><use transform="matrix(0.11330203354979888,0,0,0.11330203354979888,38.29608733983203,0)" xlink:href="#R"/><use transform="matrix(0.11330203354979888,0,0,0.11330203354979888,60.9564940497918,0)" xlink:href="#R"/><use transform="matrix(0.11330203354979888,0,0,0.11330203354979888,83.61690075975157,0)" xlink:href="#S"/><use transform="matrix(0.11330203354979888,0,0,0.11330203354979888,92.56776141018568,0)" xlink:href="#T"/><use transform="matrix(0.11330203354979888,0,0,0.11330203354979888,115.22816812014545,0)" xlink:href="#U"/><use transform="matrix(0.11330203354979888,0,0,0.11330203354979888,137.88857483010523,0)" xlink:href="#V"/><use transform="matrix(0.11330203354979888,0,0,0.11330203354979888,158.28294086906902,0)" xlink:href="#az"/><use transform="matrix(0.11330203354979888,0,0,0.11330203354979888,167.23380151950315,0)" xlink:href="#U"/><use transform="matrix(0.11330203354979888,0,0,0.11330203354979888,189.89420822946292,0)" xlink:href="#aM"/></g><path fill="#666" d="M33-261c38 41 65 92 65 168S71 34 33 75H2C39 34 66-17 66-93S39-220 2-261h31" id="ba"/><g id="O"><use transform="matrix(0.11330203354979888,0,0,0.11330203354979888,0,0)" xlink:href="#aA"/><use transform="matrix(0.11330203354979888,0,0,0.11330203354979888,27.19248805195173,0)" xlink:href="#Z"/><use transform="matrix(0.11330203354979888,0,0,0.11330203354979888,49.85289476191151,0)" xlink:href="#S"/><use transform="matrix(0.11330203354979888,0,0,0.11330203354979888,58.80375541234562,0)" xlink:href="#aw"/><use transform="matrix(0.11330203354979888,0,0,0.11330203354979888,81.4641621223054,0)" xlink:href="#ax"/><use transform="matrix(0.11330203354979888,0,0,0.11330203354979888,92.79436547728528,0)" xlink:href="#az"/><use transform="matrix(0.11330203354979888,0,0,0.11330203354979888,101.74522612771939,0)" xlink:href="#Z"/><use transform="matrix(0.11330203354979888,0,0,0.11330203354979888,124.40563283767918,0)" xlink:href="#U"/><use transform="matrix(0.11330203354979888,0,0,0.11330203354979888,147.06603954763895,0)" xlink:href="#aX"/><use transform="matrix(0.11330203354979888,0,0,0.11330203354979888,167.46040558660275,0)" xlink:href="#ba"/></g></defs></g></svg>